<svg xmlns="http://www.w3.org/2000/svg" height="1332.16" width="2000" xml:space="preserve"><path style="fill:#131211;fill-opacity:1;fill-rule:nonzero;stroke:none" d="M15000 0H0v9991.23h15000V0" transform="matrix(.13333 0 0 -.13333 0 1332.16)"/><path style="fill:#131211;fill-opacity:1;fill-rule:nonzero;stroke:none" d="m5962.25 4226.23 1110.11-2817.48L4951.23 2475.1z" transform="matrix(.13333 0 0 -.13333 0 1332.16)"/><path style="fill:#1b1919;fill-opacity:1;fill-rule:nonzero;stroke:none" d="m5962.25 4226.23-1923.17-867.29 912.15-883.84z" transform="matrix(.13333 0 0 -.13333 0 1332.16)"/><path style="fill:#363535;fill-opacity:1;fill-rule:nonzero;stroke:none" d="m3922.04 2008.81 117.04 1350.13 912.15-883.84z" transform="matrix(.13333 0 0 -.13333 0 1332.16)"/><path style="fill:#272626;fill-opacity:1;fill-rule:nonzero;stroke:none" d="m3922.04 4649.07 117.04-1290.13 1923.17 867.29z" transform="matrix(.13333 0 0 -.13333 0 1332.16)"/><path style="fill:#1b1918;fill-opacity:1;fill-rule:nonzero;stroke:none" d="m3922.04 4649.07 514.59 1363.51 1525.62-1786.35z" transform="matrix(.13333 0 0 -.13333 0 1332.16)"/><path style="fill:#131211;fill-opacity:1;fill-rule:nonzero;stroke:none" d="m3922.04 4649.07 514.59 1363.51-1296.54 869.96z" transform="matrix(.13333 0 0 -.13333 0 1332.16)"/><path style="fill:#131211;fill-opacity:1;fill-rule:nonzero;stroke:none" d="m2721.92 4004 418.17 2878.54 781.95-2233.47z" transform="matrix(.13333 0 0 -.13333 0 1332.16)"/><path style="fill:#21201f;fill-opacity:1;fill-rule:nonzero;stroke:none" d="m2725.55 4002.5 410.91 2879.58L1925.15 5119.4z" transform="matrix(.13333 0 0 -.13333 0 1332.16)"/><path style="fill:#131211;fill-opacity:1;fill-rule:nonzero;stroke:none" d="m2725.55 4002.5-1100.39-149.81 299.99 1266.71z" transform="matrix(.13333 0 0 -.13333 0 1332.16)"/><path style="fill:#2c2a2a;fill-opacity:1;fill-rule:nonzero;stroke:none" d="m2725.55 4002.5-1100.39-149.81 2296.88-1843.88z" transform="matrix(.13333 0 0 -.13333 0 1332.16)"/><path style="fill:#302f2f;fill-opacity:1;fill-rule:nonzero;stroke:none" d="m2090.14 3005.65-464.98 847.04 2296.88-1843.88zM515.215 1107.82 2090.14 3005.65 0 2562.74z" transform="matrix(.13333 0 0 -.13333 0 1332.16)"/><path style="fill:#272626;fill-opacity:1;fill-rule:nonzero;stroke:none" d="M0 2562.74v884.96l2090.14-442.05z" transform="matrix(.13333 0 0 -.13333 0 1332.16)"/><path style="fill:#3d3c3e;fill-opacity:1;fill-rule:nonzero;stroke:none" d="m0 3447.7 1625.16 404.99 464.98-847.04z" transform="matrix(.13333 0 0 -.13333 0 1332.16)"/><path style="fill:#131211;fill-opacity:1;fill-rule:nonzero;stroke:none" d="m0 3447.7 1625.16 404.99L0 4347.66z" transform="matrix(.13333 0 0 -.13333 0 1332.16)"/><path style="fill:#21201f;fill-opacity:1;fill-rule:nonzero;stroke:none" d="m1925.15 5119.4-299.99-1266.71L0 4347.66z" transform="matrix(.13333 0 0 -.13333 0 1332.16)"/><path style="fill:#3a3a3b;fill-opacity:1;fill-rule:nonzero;stroke:none" d="m0 4347.66 1925.15 771.74-689.97 1103.17z" transform="matrix(.13333 0 0 -.13333 0 1332.16)"/><path style="fill:#131211;fill-opacity:1;fill-rule:nonzero;stroke:none" d="M3140.09 6882.54 1925.15 5119.4l-689.97 1103.17zM0 5909.73l1235.18 312.84L0 4347.66z" transform="matrix(.13333 0 0 -.13333 0 1332.16)"/><path style="fill:#181615;fill-opacity:1;fill-rule:nonzero;stroke:none" d="m5962.25 4226.23 162.69 1683.5-1688.31 102.85z" transform="matrix(.13333 0 0 -.13333 0 1332.16)"/><path style="fill:#1a1817;fill-opacity:1;fill-rule:nonzero;stroke:none" d="m5962.25 4226.23 162.69 1683.5 1019.94-62.14z" transform="matrix(.13333 0 0 -.13333 0 1332.16)"/><path style="fill:#181615;fill-opacity:1;fill-rule:nonzero;stroke:none" d="m7392.37 4226.23-247.49 1621.36-1182.63-1621.36z" transform="matrix(.13333 0 0 -.13333 0 1332.16)"/><path style="fill:#21201f;fill-opacity:1;fill-rule:nonzero;stroke:none" d="m9430.99 4287.95-900.28 466.83 1123.34 523.35z" transform="matrix(.13333 0 0 -.13333 0 1332.16)"/><path style="fill:#1b1918;fill-opacity:1;fill-rule:nonzero;stroke:none" d="M8392.49 5879.22 7392.37 4226.23l2260.25 1052.92z" transform="matrix(.13333 0 0 -.13333 0 1332.16)"/><path style="fill:#181615;fill-opacity:1;fill-rule:nonzero;stroke:none" d="m8392.49 5879.22 1920.21 180.02-660.08-780.09z" transform="matrix(.13333 0 0 -.13333 0 1332.16)"/><path style="fill:#131211;fill-opacity:1;fill-rule:nonzero;stroke:none" d="m10912.7 4409.07-600 1650.17-660.08-780.09z" transform="matrix(.13333 0 0 -.13333 0 1332.16)"/><path style="fill:#181615;fill-opacity:1;fill-rule:nonzero;stroke:none" d="m11902.8 5279.16-990.1-870.09-600 1650.17z" transform="matrix(.13333 0 0 -.13333 0 1332.16)"/><path style="fill:#1a1817;fill-opacity:1;fill-rule:nonzero;stroke:none" d="m12740.7 4478.12-837.9 801.04-990.1-870.09z" transform="matrix(.13333 0 0 -.13333 0 1332.16)"/><path style="fill:#1b1919;fill-opacity:1;fill-rule:nonzero;stroke:none" d="m12740.7 4478.12-860-1420 73.3 1386.66z" transform="matrix(.13333 0 0 -.13333 0 1332.16)"/><path style="fill:#181615;fill-opacity:1;fill-rule:nonzero;stroke:none" d="m10912.7 4409.07 968-1350.95-2449.71 1229.83z" transform="matrix(.13333 0 0 -.13333 0 1332.16)"/><path style="fill:#1b1919;fill-opacity:1;fill-rule:nonzero;stroke:none" d="m10912.7 4409.07-1481.71-121.12 221.63 991.2z" transform="matrix(.13333 0 0 -.13333 0 1332.16)"/><path style="fill:#1b1918;fill-opacity:1;fill-rule:nonzero;stroke:none" d="m4436.63 6012.58-1296.54 869.96 4004.79-1034.95z" transform="matrix(.13333 0 0 -.13333 0 1332.16)"/><path style="fill:#21201f;fill-opacity:1;fill-rule:nonzero;stroke:none" d="m5629.96 6642.54-2489.87 240 4004.79-1034.95z" transform="matrix(.13333 0 0 -.13333 0 1332.16)"/><path style="fill:#302f2f;fill-opacity:1;fill-rule:nonzero;stroke:none" d="m5629.96 6642.54-2489.87 240 389.98 1169.93z" transform="matrix(.13333 0 0 -.13333 0 1332.16)"/><path style="fill:#131211;fill-opacity:1;fill-rule:nonzero;stroke:none" d="m1045.07 7272.51 2095.02-389.97 389.98 1169.93z" transform="matrix(.13333 0 0 -.13333 0 1332.16)"/><path style="fill:#302f2f;fill-opacity:1;fill-rule:nonzero;stroke:none" d="m1235.18 6222.57-190.11 1049.94 2095.02-389.97z" transform="matrix(.13333 0 0 -.13333 0 1332.16)"/><path style="fill:#21201f;fill-opacity:1;fill-rule:nonzero;stroke:none" d="m1505.17 7416.92 108.88 374.53 1916.02 261.02z" transform="matrix(.13333 0 0 -.13333 0 1332.16)"/><path style="fill:#131211;fill-opacity:1;fill-rule:nonzero;stroke:none" d="m1505.17 7416.92 108.88 374.53-1251.577 51.03z" transform="matrix(.13333 0 0 -.13333 0 1332.16)"/><path style="fill:#2a2928;fill-opacity:1;fill-rule:nonzero;stroke:none" d="m1235.18 6222.57-190.11 1049.94L0 5909.73z" transform="matrix(.13333 0 0 -.13333 0 1332.16)"/><path style="fill:#131211;fill-opacity:1;fill-rule:nonzero;stroke:none" d="m0 6591.11 1045.07 681.4L0 5909.73z" transform="matrix(.13333 0 0 -.13333 0 1332.16)"/><path style="fill:#131211;fill-opacity:1;fill-rule:nonzero;stroke:none" d="M0 7977.47V6591.11l1045.07 681.4zM1045.07 7272.51 0 7977.47l1505.17-560.55z" transform="matrix(.13333 0 0 -.13333 0 1332.16)"/><path style="fill:#3a3a3b;fill-opacity:1;fill-rule:nonzero;stroke:none" d="m0 7977.47 1045.07-704.96 460.1 144.41z" transform="matrix(.13333 0 0 -.13333 0 1332.16)"/><path style="fill:#131211;fill-opacity:1;fill-rule:nonzero;stroke:none" d="m4730 7842.48-1199.93 209.99 2099.89-1409.93z" transform="matrix(.13333 0 0 -.13333 0 1332.16)"/><path style="fill:#272626;fill-opacity:1;fill-rule:nonzero;stroke:none" d="m7144.88 5847.59-1514.92 794.95 1144.56 389.98z" transform="matrix(.13333 0 0 -.13333 0 1332.16)"/><path style="fill:#1a1817;fill-opacity:1;fill-rule:nonzero;stroke:none" d="m8134.83 7167.52-1360.31-135 370.36-1184.93z" transform="matrix(.13333 0 0 -.13333 0 1332.16)"/><path style="fill:#131211;fill-opacity:1;fill-rule:nonzero;stroke:none" d="m6649.91 8157.47 1484.92-989.95-1360.31-135z" transform="matrix(.13333 0 0 -.13333 0 1332.16)"/><path style="fill:#1b1918;fill-opacity:1;fill-rule:nonzero;stroke:none" d="m6649.91 8157.47 1484.92-989.95L9499.77 7595zM9652.62 6365.06l-1517.79 802.46L9499.77 7595zM4730 7842.48l1919.91 314.99-1019.95-1514.93z" transform="matrix(.13333 0 0 -.13333 0 1332.16)"/><path style="fill:#302f2f;fill-opacity:1;fill-rule:nonzero;stroke:none" d="M5074.99 8622.44 4730 7842.48l1919.91 314.99z" transform="matrix(.13333 0 0 -.13333 0 1332.16)"/><path style="fill:#131211;fill-opacity:1;fill-rule:nonzero;stroke:none" d="M5074.99 8622.44 4730 7842.48l-344.98 989.95z" transform="matrix(.13333 0 0 -.13333 0 1332.16)"/><path style="fill:#21201f;fill-opacity:1;fill-rule:nonzero;stroke:none" d="m4385.02 8832.43-1004.52-59.99L4730 7842.48z" transform="matrix(.13333 0 0 -.13333 0 1332.16)"/><path style="fill:#131211;fill-opacity:1;fill-rule:nonzero;stroke:none" d="m3530.07 8052.47-149.57 719.97L4730 7842.48z" transform="matrix(.13333 0 0 -.13333 0 1332.16)"/><path style="fill:#21201f;fill-opacity:1;fill-rule:nonzero;stroke:none" d="m3530.07 8052.47-149.57 719.97-953.83-323.5z" transform="matrix(.13333 0 0 -.13333 0 1332.16)"/><path style="fill:#131211;fill-opacity:1;fill-rule:nonzero;stroke:none" d="M1419.06 9991.23 3380.5 8772.44l-953.83-323.5z" transform="matrix(.13333 0 0 -.13333 0 1332.16)"/><path style="fill:#131211;fill-opacity:1;fill-rule:nonzero;stroke:none" d="M1419.06 9991.23 3380.5 8772.44l1004.52 59.99z" transform="matrix(.13333 0 0 -.13333 0 1332.16)"/><path style="fill:#131211;fill-opacity:1;fill-rule:nonzero;stroke:none" d="m3636.33 9124.94 748.69-292.51-119.99 1158.8z" transform="matrix(.13333 0 0 -.13333 0 1332.16)"/><path style="fill:#131211;fill-opacity:1;fill-rule:nonzero;stroke:none" d="m4890.71 9048.13-505.69-215.7-119.99 1158.8z" transform="matrix(.13333 0 0 -.13333 0 1332.16)"/><path style="fill:#131211;fill-opacity:1;fill-rule:nonzero;stroke:none" d="m4890.71 9048.13-505.69-215.7 1485.53-444.86zM4265.03 9991.23l625.68-943.1 440 420z" transform="matrix(.13333 0 0 -.13333 0 1332.16)"/><path style="fill:#272626;fill-opacity:1;fill-rule:nonzero;stroke:none" d="m4265.03 9991.23 625.68-943.1 440 420z" transform="matrix(.13333 0 0 -.13333 0 1332.16)"/><path style="fill:#131211;fill-opacity:1;fill-rule:nonzero;stroke:none" d="m5870.55 8387.57-979.84 660.56 440 420z" transform="matrix(.13333 0 0 -.13333 0 1332.16)"/><path style="fill:#302f2f;fill-opacity:1;fill-rule:nonzero;stroke:none" d="m3636.33 9124.94-2217.27 866.29h2845.97z" transform="matrix(.13333 0 0 -.13333 0 1332.16)"/><path style="fill:#3a3a3b;fill-opacity:1;fill-rule:nonzero;stroke:none" d="m1419.06 9991.23 107.26-1218.79 900.35-323.5z" transform="matrix(.13333 0 0 -.13333 0 1332.16)"/><path style="fill:#131211;fill-opacity:1;fill-rule:nonzero;stroke:none" d="m3530.07 8052.47-149.57 719.97M4436.63 6012.58l1525.62-1786.35" transform="matrix(.13333 0 0 -.13333 0 1332.16)"/><path style="fill:#181615;fill-opacity:1;fill-rule:nonzero;stroke:none" d="m3922.04 4649.07 117.04-1290.13L2721.92 4004z" transform="matrix(.13333 0 0 -.13333 0 1332.16)"/><path style="fill:#272626;fill-opacity:1;fill-rule:nonzero;stroke:none" d="M4039.08 3358.94 2721.92 4004l1200.12-1995.19z" transform="matrix(.13333 0 0 -.13333 0 1332.16)"/><path style="fill:#131211;fill-opacity:1;fill-rule:nonzero;stroke:none" d="M7072.36 1408.75 5962.25 4226.23l1624.54-861.97z" transform="matrix(.13333 0 0 -.13333 0 1332.16)"/><path style="fill:#21201f;fill-opacity:1;fill-rule:nonzero;stroke:none" d="m1614.05 7791.45-194.99 2199.78L362.473 7842.48z" transform="matrix(.13333 0 0 -.13333 0 1332.16)"/><path style="fill:#3a3a3b;fill-opacity:1;fill-rule:nonzero;stroke:none" d="M522.535 9991.23h896.525l-374-773.06z" transform="matrix(.13333 0 0 -.13333 0 1332.16)"/><path style="fill:#131211;fill-opacity:1;fill-rule:nonzero;stroke:none" d="M522.535 9991.23H0l1045.06-773.06z" transform="matrix(.13333 0 0 -.13333 0 1332.16)"/><path style="fill:#2a2928;fill-opacity:1;fill-rule:nonzero;stroke:none" d="M0 7977.47v2013.76l1045.06-773.06z" transform="matrix(.13333 0 0 -.13333 0 1332.16)"/><path style="fill:#131211;fill-opacity:1;fill-rule:nonzero;stroke:none" d="M1045.07 9218.18 0 7977.47l362.473-134.99zM1526.32 8772.44l2003.75-719.97-1916.02-261.02z" transform="matrix(.13333 0 0 -.13333 0 1332.16)"/><path style="fill:#302f2f;fill-opacity:1;fill-rule:nonzero;stroke:none" d="m4951.23 2475.1-1029.19-466.29 389.98-1169.931z" transform="matrix(.13333 0 0 -.13333 0 1332.16)"/><path style="fill:#131211;fill-opacity:1;fill-rule:nonzero;stroke:none" d="m1827.02 1618.84 2095.02 389.97 389.98-1169.931z" transform="matrix(.13333 0 0 -.13333 0 1332.16)"/><path style="fill:#302f2f;fill-opacity:1;fill-rule:nonzero;stroke:none" d="m2017.13 2668.78-190.11-1049.94 2095.02 389.97z" transform="matrix(.13333 0 0 -.13333 0 1332.16)"/><path style="fill:#21201f;fill-opacity:1;fill-rule:nonzero;stroke:none" d="M2287.12 1474.42 2396 1099.89l1916.02-261.011z" transform="matrix(.13333 0 0 -.13333 0 1332.16)"/><path style="fill:#131211;fill-opacity:1;fill-rule:nonzero;stroke:none" d="M2287.12 1474.42 2396 1099.89l-1251.58-51.02z" transform="matrix(.13333 0 0 -.13333 0 1332.16)"/><path style="fill:#2a2928;fill-opacity:1;fill-rule:nonzero;stroke:none" d="m2090.14 3005.65-263.12-1386.81-564.12 389.97z" transform="matrix(.13333 0 0 -.13333 0 1332.16)"/><path style="fill:#131211;fill-opacity:1;fill-rule:nonzero;stroke:none" d="M1827.02 1618.84 781.953 913.879 2287.12 1474.42z" transform="matrix(.13333 0 0 -.13333 0 1332.16)"/><path style="fill:#3a3a3b;fill-opacity:1;fill-rule:nonzero;stroke:none" d="M781.953 913.879 1827.02 1618.84l460.1-144.42z" transform="matrix(.13333 0 0 -.13333 0 1332.16)"/><path style="fill:#21201f;fill-opacity:1;fill-rule:nonzero;stroke:none" d="M781.953 913.879 515.215 1107.82l1311.805 511.02z" transform="matrix(.13333 0 0 -.13333 0 1332.16)"/><path style="fill:#131211;fill-opacity:1;fill-rule:nonzero;stroke:none" d="M5511.96 1048.87 4312.02 838.879 4951.23 2475.1zM7072.36 1408.75 9499.77 2475.1l-1917.36 853.85z" transform="matrix(.13333 0 0 -.13333 0 1332.16)"/><path style="fill:#131211;fill-opacity:1;fill-rule:nonzero;stroke:none" d="M7072.36 1408.75 9499.77 2475.1 8500.71 268.91z" transform="matrix(.13333 0 0 -.13333 0 1332.16)"/><path style="fill:#21201f;fill-opacity:1;fill-rule:nonzero;stroke:none" d="M9654.05 478.891 9499.77 2475.1 8500.71 268.91z" transform="matrix(.13333 0 0 -.13333 0 1332.16)"/><path style="fill:#1b1918;fill-opacity:1;fill-rule:nonzero;stroke:none" d="m5511.96 1048.87 1560.4 359.88L4951.23 2475.1z" transform="matrix(.13333 0 0 -.13333 0 1332.16)"/><path style="fill:#302f2f;fill-opacity:1;fill-rule:nonzero;stroke:none" d="m5856.94 268.91-344.98 779.96 1560.4 359.88z" transform="matrix(.13333 0 0 -.13333 0 1332.16)"/><path style="fill:#131211;fill-opacity:1;fill-rule:nonzero;stroke:none" d="m5856.94 268.91-344.98 779.96-344.98-989.952z" transform="matrix(.13333 0 0 -.13333 0 1332.16)"/><path style="fill:#21201f;fill-opacity:1;fill-rule:nonzero;stroke:none" d="M5166.98 58.918 4162.46 118.91l1349.5 929.96z" transform="matrix(.13333 0 0 -.13333 0 1332.16)"/><path style="fill:#131211;fill-opacity:1;fill-rule:nonzero;stroke:none" d="M4312.02 838.879 4162.46 118.91l1349.5 929.96z" transform="matrix(.13333 0 0 -.13333 0 1332.16)"/><path style="fill:#21201f;fill-opacity:1;fill-rule:nonzero;stroke:none" d="M4312.02 838.879 4162.46 118.91l-953.84 323.5z" transform="matrix(.13333 0 0 -.13333 0 1332.16)"/><path style="fill:#131211;fill-opacity:1;fill-rule:nonzero;stroke:none" d="M2201.01-1099.87 4162.46 118.91l-953.84 323.5z" transform="matrix(.13333 0 0 -.13333 0 1332.16)"/><path style="fill:#131211;fill-opacity:1;fill-rule:nonzero;stroke:none" d="M2201.01-1099.87 4162.46 118.91l1004.52-59.992z" transform="matrix(.13333 0 0 -.13333 0 1332.16)"/><path style="fill:#131211;fill-opacity:1;fill-rule:nonzero;stroke:none" d="m4418.28-233.57 748.7 292.488-120-1158.788zM5672.67-156.77 5166.98 58.918l-120-1158.788z" transform="matrix(.13333 0 0 -.13333 0 1332.16)"/><path style="fill:#131211;fill-opacity:1;fill-rule:nonzero;stroke:none" d="M5672.67-156.77 5166.98 58.918 6652.5 503.781z" transform="matrix(.13333 0 0 -.13333 0 1332.16)"/><path style="fill:#131211;fill-opacity:1;fill-rule:nonzero;stroke:none" d="M6652.5 503.781 5672.67-156.77l440-420z" transform="matrix(.13333 0 0 -.13333 0 1332.16)"/><path style="fill:#3a3a3b;fill-opacity:1;fill-rule:nonzero;stroke:none" d="m2201.01-1099.87 107.27 1218.78 900.34 323.5z" transform="matrix(.13333 0 0 -.13333 0 1332.16)"/><path style="fill:#131211;fill-opacity:1;fill-rule:nonzero;stroke:none" d="M4312.02 838.879 4162.46 118.91" transform="matrix(.13333 0 0 -.13333 0 1332.16)"/><path style="fill:#21201f;fill-opacity:1;fill-rule:nonzero;stroke:none" d="m2396 1099.89-194.99-2199.76-1056.59 2148.74z" transform="matrix(.13333 0 0 -.13333 0 1332.16)"/><path style="fill:#2a2928;fill-opacity:1;fill-rule:nonzero;stroke:none" d="M781.953 913.879 0-326.871h1827.02z" transform="matrix(.13333 0 0 -.13333 0 1332.16)"/><path style="fill:#3a3a3b;fill-opacity:1;fill-rule:nonzero;stroke:none" d="M781.953 913.879 0-326.871 515.215 1107.82z" transform="matrix(.13333 0 0 -.13333 0 1332.16)"/><path style="fill:#2a2928;fill-opacity:1;fill-rule:nonzero;stroke:none" d="M515.215 1107.82 0-326.871V2562.74z" transform="matrix(.13333 0 0 -.13333 0 1332.16)"/><path style="fill:#131211;fill-opacity:1;fill-rule:nonzero;stroke:none" d="M1827.02-326.871 781.953 913.879l362.467 134.991zM2308.28 118.91l2003.74 719.969L2396 1099.89z" transform="matrix(.13333 0 0 -.13333 0 1332.16)"/><path style="fill:#1b1919;fill-opacity:1;fill-rule:nonzero;stroke:none" d="m10912.7 4409.07 968-1350.95M11283.2 2140.39l-1254.8 1086.97 1354.5-305.92z" transform="matrix(.13333 0 0 -.13333 0 1332.16)"/><path style="fill:#1b1918;fill-opacity:1;fill-rule:nonzero;stroke:none" d="m7410.72 3140.62 1651.04 173.48-1148.87-779.94z" transform="matrix(.13333 0 0 -.13333 0 1332.16)"/></svg>